<svg width="25" height="26" viewBox="0 0 25 26" fill="none" xmlns="http://www.w3.org/2000/svg">
<path id="Vector" d="M0.5 1.86225C0.5 0.833625 1.289 0 2.2625 0H22.7375C23.711 0 24.5 0.833625 24.5 1.86225V24.1378C24.5 25.1664 23.711 26 22.7375 26H2.2625C1.289 26 0.5 25.1664 0.5 24.1378V1.86225ZM7.9145 21.7652V10.0246H4.313V21.7652H7.9145ZM6.1145 8.42075C7.37 8.42075 8.1515 7.5205 8.1515 6.39275C8.129 5.24062 7.3715 4.36475 6.1385 4.36475C4.9055 4.36475 4.1 5.24225 4.1 6.39275C4.1 7.5205 4.8815 8.42075 6.0905 8.42075H6.1145ZM13.4765 21.7652V15.2084C13.4765 14.8574 13.5005 14.5064 13.5965 14.2561C13.856 13.5557 14.4485 12.8294 15.4445 12.8294C16.748 12.8294 17.2685 13.9051 17.2685 15.4846V21.7652H20.87V15.0312C20.87 11.4237 19.094 9.74675 16.724 9.74675C14.813 9.74675 13.9565 10.8842 13.4765 11.6854V11.726H13.4525C13.4605 11.7124 13.4685 11.6989 13.4765 11.6854V10.0246H9.8765C9.9215 11.1264 9.8765 21.7652 9.8765 21.7652H13.4765Z" fill="white"/>
</svg>
