<svg width="25" height="23" viewBox="0 0 25 23" fill="none" xmlns="http://www.w3.org/2000/svg">
<path id="Vector" d="M8.039 23C17.096 23 22.0505 14.149 22.0505 6.48688C22.0505 6.2392 22.0505 5.98798 22.0415 5.7403C23.0061 4.91675 23.8386 3.89713 24.5 2.72923C23.599 3.19779 22.6441 3.5066 21.6665 3.64565C22.6963 2.91966 23.4676 1.77738 23.837 0.431126C22.8695 1.10716 21.8105 1.58173 20.7065 1.83405C19.9643 0.901759 18.9821 0.284142 17.9121 0.0768701C16.8421 -0.130402 15.7441 0.0842367 14.788 0.68754C13.8319 1.29084 13.0712 2.24914 12.6237 3.414C12.1761 4.57885 12.0668 5.88525 12.3125 7.13085C10.3546 7.01506 8.43922 6.41517 6.69056 5.3701C4.9419 4.32503 3.39903 2.85811 2.162 1.06448C1.53401 2.34371 1.34236 3.85688 1.62597 5.29672C1.90958 6.73656 2.64718 7.99512 3.689 8.81683C2.90831 8.78555 2.14478 8.5383 1.46 8.09503V8.17464C1.46135 9.51472 1.85496 10.8132 2.57431 11.8505C3.29366 12.8878 4.29462 13.6004 5.408 13.8677C4.98539 14.005 4.54884 14.0735 4.1105 14.0712C3.80148 14.0723 3.49307 14.0385 3.1895 13.9703C3.50418 15.1239 4.11691 16.1325 4.94187 16.8549C5.76683 17.5772 6.7627 17.9772 7.79 17.9987C6.04483 19.6153 3.8891 20.4921 1.67 20.4878C1.27898 20.4898 0.888235 20.4632 0.5 20.4082C2.75227 22.1017 5.36795 23.001 8.039 23Z" fill="white"/>
</svg>
