<svg width="26" height="26" viewBox="0 0 26 26" fill="none" xmlns="http://www.w3.org/2000/svg">
<path id="Vector" d="M14.285 0.00159946C15.1971 -0.00204071 16.1093 0.00749332 17.0211 0.0301986L17.2636 0.0392982C17.5436 0.0496979 17.8198 0.0626974 18.1536 0.0782969C19.4835 0.143295 20.391 0.361687 21.1872 0.682777C22.0121 1.01297 22.7071 1.46015 23.402 2.18292C24.0375 2.83239 24.5293 3.61801 24.8432 4.48515C25.152 5.31322 25.3619 6.25829 25.4244 7.64144C25.4394 7.98723 25.4519 8.27582 25.4619 8.56701L25.4694 8.8192C25.4916 9.76712 25.5012 10.7153 25.4982 11.6635L25.4994 12.6333V14.3362C25.5025 15.2848 25.4929 16.2335 25.4707 17.1818L25.4632 17.434C25.4532 17.7252 25.4407 18.0125 25.4257 18.3596C25.3632 19.7427 25.1507 20.6865 24.8432 21.5146C24.5303 22.3826 24.0384 23.1689 23.402 23.8181C22.777 24.4789 22.0213 24.9903 21.1872 25.3169C20.391 25.638 19.4835 25.8564 18.1536 25.9214C17.8198 25.937 17.5436 25.95 17.2636 25.9604L17.0211 25.9682C16.1093 25.9913 15.1971 26.0013 14.285 25.9981L13.3526 25.9994H11.7164C10.8043 26.0026 9.89215 25.9927 8.98029 25.9695L8.7378 25.9617C8.44108 25.9505 8.14442 25.9375 7.84784 25.9227C6.51791 25.8577 5.61046 25.6367 4.813 25.3169C3.9789 24.9911 3.22338 24.4795 2.59936 23.8181C1.9632 23.1685 1.47095 22.3824 1.15694 21.5146C0.848203 20.6865 0.638214 19.7427 0.575717 18.3596C0.561797 18.0511 0.549297 17.7426 0.538219 17.434L0.53197 17.1818C0.508925 16.2335 0.498508 15.2849 0.500721 14.3362V11.6635C0.497233 10.7153 0.5064 9.76712 0.52822 8.8192L0.536969 8.56701C0.546969 8.27582 0.559468 7.98723 0.574467 7.64144C0.636964 6.25699 0.846953 5.31452 1.15569 4.48515C1.46989 3.61758 1.9631 2.83218 2.60061 2.18423C3.2242 1.52223 3.97924 1.00981 4.813 0.682777C5.61046 0.361687 6.51666 0.143295 7.84784 0.0782969L8.7378 0.0392982L8.98029 0.0327986C9.89172 0.00884409 10.8034 -0.00199004 11.7151 0.000299598L14.285 0.00159946ZM13.0001 6.50138C12.172 6.4892 11.3499 6.6483 10.5814 6.96945C9.81299 7.2906 9.11359 7.76738 8.52387 8.37209C7.93414 8.97679 7.46586 9.69737 7.14624 10.4919C6.82661 11.2865 6.66202 12.1392 6.66202 13.0005C6.66202 13.8618 6.82661 14.7145 7.14624 15.5091C7.46586 16.3036 7.93414 17.0242 8.52387 17.6289C9.11359 18.2336 9.81299 18.7104 10.5814 19.0316C11.3499 19.3527 12.172 19.5118 13.0001 19.4996C14.6576 19.4996 16.2472 18.8148 17.4193 17.5959C18.5913 16.3769 19.2498 14.7237 19.2498 12.9999C19.2498 11.276 18.5913 9.62276 17.4193 8.40382C16.2472 7.18487 14.6576 6.50138 13.0001 6.50138ZM13.0001 9.10129C13.4982 9.09174 13.9931 9.18552 14.456 9.37715C14.9189 9.56878 15.3404 9.85441 15.6959 10.2174C16.0514 10.5803 16.3339 11.0133 16.5267 11.4911C16.7195 11.9688 16.8189 12.4817 16.819 12.9998C16.8191 13.518 16.7199 14.0309 16.5272 14.5087C16.3345 14.9866 16.0522 15.4196 15.6968 15.7827C15.3414 16.1458 14.92 16.4316 14.4572 16.6234C13.9944 16.8151 13.4994 16.9091 13.0013 16.8997C12.0068 16.8997 11.053 16.4888 10.3498 15.7575C9.64659 15.0261 9.25152 14.0342 9.25152 12.9999C9.25152 11.9655 9.64659 10.9736 10.3498 10.2422C11.053 9.51087 12.0068 9.09999 13.0013 9.09999L13.0001 9.10129ZM19.5622 4.55144C19.159 4.56823 18.7777 4.74663 18.4981 5.04929C18.2185 5.35195 18.0623 5.75538 18.0623 6.17509C18.0623 6.5948 18.2185 6.99823 18.4981 7.30089C18.7777 7.60354 19.159 7.78195 19.5622 7.79873C19.9766 7.79873 20.374 7.62753 20.667 7.3228C20.9601 7.01806 21.1247 6.60475 21.1247 6.17379C21.1247 5.74283 20.9601 5.32952 20.667 5.02478C20.374 4.72004 19.9766 4.54884 19.5622 4.54884V4.55144Z" fill="white"/>
</svg>
