<svg width="33" height="34" viewBox="0 0 33 34" fill="none" xmlns="http://www.w3.org/2000/svg">
<path id="Vector" d="M0 2.43525C0 1.09013 1.08487 0 2.42344 0H30.5766C31.9151 0 33 1.09013 33 2.43525V31.5648C33 32.9099 31.9151 34 30.5766 34H2.42344C1.08487 34 0 32.9099 0 31.5648V2.43525ZM10.1949 28.4622V13.1091H5.24288V28.4622H10.1949ZM7.71994 11.0118C9.44625 11.0118 10.5208 9.8345 10.5208 8.35975C10.4899 6.85313 9.44831 5.70775 7.75294 5.70775C6.05756 5.70775 4.95 6.85525 4.95 8.35975C4.95 9.8345 6.02456 11.0118 7.68694 11.0118H7.71994ZM17.8427 28.4622V19.8879C17.8427 19.4289 17.8757 18.9699 18.0077 18.6426C18.3645 17.7267 19.1792 16.7769 20.5487 16.7769C22.341 16.7769 23.0567 18.1836 23.0567 20.2491V28.4622H28.0087V19.6562C28.0087 14.9388 25.5667 12.7458 22.308 12.7458C19.6804 12.7458 18.5027 14.2332 17.8427 15.2809V15.334H17.8097C17.8206 15.3163 17.8316 15.2986 17.8427 15.2809V13.1091H12.8927C12.9546 14.5499 12.8927 28.4622 12.8927 28.4622H17.8427Z" fill="white"/>
</svg>
