<svg width="33" height="30" viewBox="0 0 33 30" fill="none" xmlns="http://www.w3.org/2000/svg">
<path id="Vector" d="M10.3661 30C22.8195 30 29.6319 18.4552 29.6319 8.46115C29.6319 8.13809 29.6319 7.81041 29.6196 7.48735C30.9459 6.41315 32.0906 5.08322 33 3.55987C31.7611 4.17103 30.4482 4.57383 29.1039 4.75519C30.5199 3.80825 31.5804 2.31833 32.0884 0.562339C30.758 1.44412 29.302 2.06312 27.7839 2.39224C26.7634 1.17621 25.4129 0.370621 23.9417 0.100265C22.4705 -0.17009 20.9606 0.109874 19.646 0.896792C18.3314 1.68371 17.2854 2.93366 16.6701 4.45304C16.0547 5.97242 15.9043 7.67642 16.2422 9.3011C13.5501 9.15008 10.9164 8.36762 8.51203 7.00448C6.10762 5.64134 3.98616 3.72796 2.28525 1.38845C1.42176 3.05701 1.15825 5.03072 1.54821 6.90877C1.93817 8.78682 2.95238 10.4284 4.38487 11.5002C3.31143 11.4594 2.26157 11.1369 1.32 10.5587V10.6626C1.32185 12.4105 1.86307 14.1041 2.85218 15.4571C3.84128 16.8102 5.2176 17.7396 6.7485 18.0883C6.16742 18.2674 5.56716 18.3567 4.96444 18.3537C4.53953 18.3551 4.11547 18.3111 3.69806 18.2222C4.13075 19.7268 4.97325 21.0424 6.10757 21.9846C7.24189 22.9268 8.61121 23.4485 10.0238 23.4765C7.62415 25.5852 4.66002 26.7288 1.60875 26.7233C1.0711 26.7258 0.533823 26.6911 0 26.6194C3.09687 28.8284 6.69343 30.0013 10.3661 30Z" fill="white"/>
</svg>
