<svg width="34" height="34" viewBox="0 0 34 34" fill="none" xmlns="http://www.w3.org/2000/svg">
<path id="Vector" d="M18.7476 0.0020916C19.9881 -0.00266862 21.2286 0.00979896 22.4687 0.0394905L22.7985 0.05139C23.1793 0.0649895 23.555 0.0819889 24.0088 0.102388C25.8176 0.187385 27.0517 0.472976 28.1345 0.892862C29.2565 1.32465 30.2016 1.90943 31.1468 2.85459C32.011 3.7039 32.6798 4.73124 33.1068 5.86519C33.5267 6.94806 33.8122 8.18391 33.8972 9.99265C33.9176 10.4448 33.9346 10.8222 33.9482 11.203L33.9584 11.5328C33.9886 12.7724 34.0017 14.0123 33.9975 15.2523L33.9992 16.5204V18.7474C34.0034 19.9879 33.9904 21.2284 33.9601 22.4685L33.9499 22.7983C33.9363 23.1791 33.9193 23.5548 33.8989 24.0087C33.8139 25.8174 33.525 27.0516 33.1068 28.1344C32.6812 29.2696 32.0122 30.2978 31.1468 31.1467C30.2968 32.0108 29.2689 32.6797 28.1345 33.1068C27.0517 33.5266 25.8176 33.8122 24.0088 33.8972C23.555 33.9176 23.1793 33.9346 22.7985 33.9482L22.4687 33.9584C21.2286 33.9887 19.9881 34.0017 18.7476 33.9975L17.4795 33.9992H15.2543C14.0138 34.0034 12.7733 33.9904 11.5332 33.9601L11.2034 33.9499C10.7999 33.9353 10.3964 33.9183 9.99307 33.8989C8.18436 33.8139 6.95022 33.525 5.86568 33.1068C4.7313 32.6807 3.70379 32.0117 2.85513 31.1467C1.98996 30.2972 1.32049 29.2692 0.893435 28.1344C0.473557 27.0516 0.187971 25.8174 0.102976 24.0087C0.0840434 23.6053 0.0670442 23.2018 0.0519782 22.7983L0.0434788 22.4685C0.0121385 21.2284 -0.00202893 19.9879 0.000980851 18.7474V15.2523C-0.00376355 14.0123 0.00870381 12.7724 0.0383791 11.5328L0.0502784 11.203C0.0638777 10.8222 0.0808768 10.4448 0.101276 9.99265C0.186271 8.18221 0.471857 6.94976 0.891735 5.86519C1.31905 4.73068 1.98982 3.70362 2.85683 2.85629C3.70491 1.9906 4.73177 1.32052 5.86568 0.892862C6.95022 0.472976 8.18266 0.187385 9.99307 0.102388L11.2034 0.05139L11.5332 0.0428905C12.7727 0.0115653 14.0127 -0.00260236 15.2526 0.000391782L18.7476 0.0020916ZM17.0001 8.5018C15.8739 8.48587 14.7558 8.69394 13.7107 9.1139C12.6657 9.53386 11.7145 10.1573 10.9125 10.9481C10.1104 11.7389 9.47358 12.6812 9.03889 13.7202C8.60419 14.7593 8.38035 15.8743 8.38035 17.0007C8.38035 18.127 8.60419 19.2421 9.03889 20.2811C9.47358 21.3202 10.1104 22.2624 10.9125 23.0532C11.7145 23.844 12.6657 24.4675 13.7107 24.8874C14.7558 25.3074 15.8739 25.5155 17.0001 25.4995C19.2543 25.4995 21.4162 24.604 23.0102 23.01C24.6042 21.416 25.4997 19.2541 25.4997 16.9998C25.4997 14.7456 24.6042 12.5836 23.0102 10.9896C21.4162 9.39561 19.2543 8.5018 17.0001 8.5018ZM17.0001 11.9017C17.6775 11.8892 18.3507 12.0118 18.9802 12.2624C19.6097 12.513 20.1829 12.8865 20.6664 13.3612C21.15 13.8358 21.5341 14.402 21.7963 15.0268C22.0586 15.6515 22.1937 16.3222 22.1938 16.9998C22.1939 17.6774 22.059 18.3481 21.797 18.973C21.5349 19.5978 21.151 20.1642 20.6677 20.6389C20.1843 21.1137 19.6112 21.4874 18.9817 21.7382C18.3523 21.989 17.6792 22.1119 17.0018 22.0996C15.6493 22.0996 14.3521 21.5623 13.3957 20.6059C12.4394 19.6495 11.9021 18.3524 11.9021 16.9998C11.9021 15.6473 12.4394 14.3501 13.3957 13.3937C14.3521 12.4373 15.6493 11.9 17.0018 11.9L17.0001 11.9017ZM25.9247 5.95189C25.3762 5.97384 24.8576 6.20714 24.4774 6.60292C24.0971 6.9987 23.8847 7.52626 23.8847 8.07512C23.8847 8.62397 24.0971 9.15153 24.4774 9.54732C24.8576 9.9431 25.3762 10.1764 25.9247 10.1983C26.4882 10.1983 27.0287 9.97447 27.4272 9.57597C27.8257 9.17747 28.0495 8.63698 28.0495 8.07342C28.0495 7.50985 27.8257 6.96937 27.4272 6.57087C27.0287 6.17237 26.4882 5.94849 25.9247 5.94849V5.95189Z" fill="white"/>
</svg>
